<svg xmlns="http://www.w3.org/2000/svg" version="1.1" xmlns:xlink="http://www.w3.org/1999/xlink" viewBox="0 0 200 200"><rect width="200" height="200" fill="url('#gradient')"></rect><defs><linearGradient id="gradient" gradientTransform="rotate(45 0.5 0.5)"><stop offset="0%" stop-color="#472027"></stop><stop offset="100%" stop-color="#192025"></stop></linearGradient></defs><g><g fill="#f3bd7d" transform="matrix(4.72385401459854,0,0,4.72385401459854,15.93616463185748,133.11593446898635)" stroke="#c06a3e" stroke-width="0.2"><path d="M9.89-8.57L9.89-6.03L4.50-6.03L4.50-2.64L10.87-2.64L10.87 0L1.07 0L1.07-14.22L10.89-14.22L10.89-11.57L4.50-11.57L4.50-8.57L9.89-8.57ZM17.93-4.46L17.93-14.22L21.35-14.22L21.35-4.46Q21.35-3.11 20.72-2.04Q20.09-0.98 18.96-0.39Q17.83 0.20 16.45 0.20L16.45 0.20Q14.12 0.20 12.83-0.98Q11.54-2.15 11.54-4.30L11.54-4.30L14.98-4.30Q14.98-3.32 15.32-2.88Q15.65-2.44 16.45-2.44L16.45-2.44Q17.16-2.44 17.54-2.97Q17.93-3.51 17.93-4.46L17.93-4.46ZM29.28 0L23.51 0L23.51-14.22L28.61-14.22Q31.36-14.22 32.79-13.21Q34.22-12.21 34.22-10.29L34.22-10.29Q34.22-9.19 33.71-8.41Q33.20-7.63 32.22-7.26L32.22-7.26Q33.33-6.96 33.93-6.16Q34.52-5.36 34.52-4.21L34.52-4.21Q34.52-2.12 33.20-1.07Q31.88-0.02 29.28 0L29.28 0ZM29.34-6.04L26.93-6.04L26.93-2.64L29.18-2.64Q30.11-2.64 30.61-3.06Q31.10-3.49 31.10-4.26L31.10-4.26Q31.10-6.04 29.34-6.04L29.34-6.04ZM26.93-11.57L26.93-8.29L28.72-8.29Q29.84-8.30 30.32-8.70Q30.80-9.10 30.80-9.88L30.80-9.88Q30.80-10.78 30.28-11.18Q29.77-11.57 28.61-11.57L28.61-11.57L26.93-11.57Z"></path></g></g></svg>